<svg xmlns:xlink="http://www.w3.org/1999/xlink" xmlns="http://www.w3.org/2000/svg" viewBox="0 0 45 45" aria-hidden="true" height="44" width="44" class="w-11 h-11 mb-md"><path fill="#008060" fill-rule="evenodd" d="M38.787 31a5.505 5.505 0 0 0-5.287-4c-2.512 0-4.631 1.695-5.286 4H26v-9h14v9h-1.213ZM33.5 35a2.503 2.503 0 0 1-2.5-2.5c0-1.378 1.122-2.5 2.5-2.5 1.379 0 2.5 1.122 2.5 2.5S34.879 35 33.5 35Zm-21-8c-2.512 0-4.631 1.695-5.286 4H5V10h18v21h-5.213a5.505 5.505 0 0 0-5.287-4Zm0 8a2.503 2.503 0 0 1-2.5-2.5c0-1.378 1.122-2.5 2.5-2.5 1.379 0 2.5 1.122 2.5 2.5S13.879 35 12.5 35Zm22.198-22 4 6H26v-6h8.698Zm8.05 6.668-6-9A1.497 1.497 0 0 0 35.5 10H26v-.5C26 8.122 24.879 7 23.5 7h-19A2.503 2.503 0 0 0 2 9.5v22C2 32.878 3.122 34 4.5 34h2.714c.655 2.305 2.774 4 5.286 4a5.505 5.505 0 0 0 5.287-4h10.427c.655 2.305 2.774 4 5.286 4a5.505 5.505 0 0 0 5.287-4H41.5a1.5 1.5 0 0 0 1.5-1.5v-12c0-.296-.088-.585-.252-.832Z" clip-rule="evenodd"></path></svg>